<svg width="24" height="24" viewBox="0 0 24 24" fill="none" xmlns="http://www.w3.org/2000/svg">
<path d="M10.617 13.837C12.3953 13.837 13.837 12.3954 13.837 10.617C13.837 8.83865 12.3953 7.397 10.617 7.397C8.83862 7.397 7.39697 8.83865 7.39697 10.617C7.39697 12.3954 8.83862 13.837 10.617 13.837Z" stroke="#EA4559" stroke-width="1.5" stroke-linecap="round" stroke-linejoin="round"/>
<path d="M10.08 4.98199H11.154" stroke="#EA4559" stroke-width="1.5" stroke-linecap="round" stroke-linejoin="round"/>
<path d="M10.617 4.98199V7.39699" stroke="#EA4559" stroke-width="1.5" stroke-linecap="round" stroke-linejoin="round"/>
<path d="M14.222 6.25299L14.981 7.01199" stroke="#EA4559" stroke-width="1.5" stroke-linecap="round" stroke-linejoin="round"/>
<path d="M14.601 6.633L12.894 8.34" stroke="#EA4559" stroke-width="1.5" stroke-linecap="round" stroke-linejoin="round"/>
<path d="M16.252 10.08V11.154" stroke="#EA4559" stroke-width="1.5" stroke-linecap="round" stroke-linejoin="round"/>
<path d="M16.252 10.617H13.837" stroke="#EA4559" stroke-width="1.5" stroke-linecap="round" stroke-linejoin="round"/>
<path d="M14.981 14.222L14.222 14.981" stroke="#EA4559" stroke-width="1.5" stroke-linecap="round" stroke-linejoin="round"/>
<path d="M14.601 14.601L12.894 12.894" stroke="#EA4559" stroke-width="1.5" stroke-linecap="round" stroke-linejoin="round"/>
<path d="M11.154 16.252H10.08" stroke="#EA4559" stroke-width="1.5" stroke-linecap="round" stroke-linejoin="round"/>
<path d="M10.617 16.252V13.837" stroke="#EA4559" stroke-width="1.5" stroke-linecap="round" stroke-linejoin="round"/>
<path d="M7.01199 14.981L6.25299 14.222" stroke="#EA4559" stroke-width="1.5" stroke-linecap="round" stroke-linejoin="round"/>
<path d="M6.633 14.601L8.34 12.894" stroke="#EA4559" stroke-width="1.5" stroke-linecap="round" stroke-linejoin="round"/>
<path d="M4.98199 11.154V10.08" stroke="#EA4559" stroke-width="1.5" stroke-linecap="round" stroke-linejoin="round"/>
<path d="M4.98199 10.617H7.39699" stroke="#EA4559" stroke-width="1.5" stroke-linecap="round" stroke-linejoin="round"/>
<path d="M6.25299 7.01199L7.01199 6.25299" stroke="#EA4559" stroke-width="1.5" stroke-linecap="round" stroke-linejoin="round"/>
<path d="M6.633 6.633L8.34 8.34" stroke="#EA4559" stroke-width="1.5" stroke-linecap="round" stroke-linejoin="round"/>
<path d="M10.617 20.484C16.0664 20.484 20.484 16.0664 20.484 10.617C20.484 5.16761 16.0664 0.75 10.617 0.75C5.16761 0.75 0.75 5.16761 0.75 10.617C0.75 16.0664 5.16761 20.484 10.617 20.484Z" stroke="#EA4559" stroke-width="1.5" stroke-linecap="round" stroke-linejoin="round"/>
<path d="M23.25 23.25L17.594 17.594" stroke="#EA4559" stroke-width="1.5" stroke-linecap="round" stroke-linejoin="round"/>
</svg>
