<svg width="24" height="24" viewBox="0 0 24 24" fill="none" xmlns="http://www.w3.org/2000/svg">
<path d="M12.125 14.339C14.1762 14.339 15.839 12.6762 15.839 10.625C15.839 8.57383 14.1762 6.91101 12.125 6.91101C10.0738 6.91101 8.411 8.57383 8.411 10.625C8.411 12.6762 10.0738 14.339 12.125 14.339Z" stroke="#EA4559" stroke-width="1.5" stroke-linecap="round" stroke-linejoin="round"/>
<path d="M11.506 4.125H12.744" stroke="#EA4559" stroke-width="1.5" stroke-linecap="round" stroke-linejoin="round"/>
<path d="M12.125 4.125V6.911" stroke="#EA4559" stroke-width="1.5" stroke-linecap="round" stroke-linejoin="round"/>
<path d="M16.283 5.591L17.159 6.467" stroke="#EA4559" stroke-width="1.5" stroke-linecap="round" stroke-linejoin="round"/>
<path d="M16.721 6.02899L14.751 7.99899" stroke="#EA4559" stroke-width="1.5" stroke-linecap="round" stroke-linejoin="round"/>
<path d="M18.625 10.006V11.244" stroke="#EA4559" stroke-width="1.5" stroke-linecap="round" stroke-linejoin="round"/>
<path d="M18.625 10.625H15.839" stroke="#EA4559" stroke-width="1.5" stroke-linecap="round" stroke-linejoin="round"/>
<path d="M17.159 14.783L16.283 15.659" stroke="#EA4559" stroke-width="1.5" stroke-linecap="round" stroke-linejoin="round"/>
<path d="M16.721 15.221L14.751 13.251" stroke="#EA4559" stroke-width="1.5" stroke-linecap="round" stroke-linejoin="round"/>
<path d="M12.744 17.125H11.506" stroke="#EA4559" stroke-width="1.5" stroke-linecap="round" stroke-linejoin="round"/>
<path d="M12.125 17.125V14.339" stroke="#EA4559" stroke-width="1.5" stroke-linecap="round" stroke-linejoin="round"/>
<path d="M7.967 15.659L7.091 14.783" stroke="#EA4559" stroke-width="1.5" stroke-linecap="round" stroke-linejoin="round"/>
<path d="M7.529 15.221L9.499 13.251" stroke="#EA4559" stroke-width="1.5" stroke-linecap="round" stroke-linejoin="round"/>
<path d="M5.625 11.244V10.006" stroke="#EA4559" stroke-width="1.5" stroke-linecap="round" stroke-linejoin="round"/>
<path d="M5.625 10.625H8.411" stroke="#EA4559" stroke-width="1.5" stroke-linecap="round" stroke-linejoin="round"/>
<path d="M7.091 6.467L7.967 5.591" stroke="#EA4559" stroke-width="1.5" stroke-linecap="round" stroke-linejoin="round"/>
<path d="M7.529 6.02899L9.499 7.99899" stroke="#EA4559" stroke-width="1.5" stroke-linecap="round" stroke-linejoin="round"/>
<path d="M2.25 3.92302V11.537C2.25 15.26 3.879 20.337 10.923 23.05C11.6162 23.3167 12.3838 23.3167 13.077 23.05C20.118 20.342 21.75 15.228 21.75 11.537V3.92302C21.752 3.63647 21.6712 3.35545 21.5172 3.1138C21.3632 2.87215 21.1426 2.68018 20.882 2.56102C18.0818 1.33881 15.0551 0.721678 12 0.750018C8.94486 0.721678 5.91816 1.33881 3.118 2.56102C2.8574 2.68018 2.63681 2.87215 2.48281 3.1138C2.32881 3.35545 2.24796 3.63647 2.25 3.92302V3.92302Z" stroke="#EA4559" stroke-width="1.5" stroke-linecap="round" stroke-linejoin="round"/>
</svg>
